<?xml version="1.0" encoding="utf-8"?>
<!-- Generator: Adobe Illustrator 27.5.0, SVG Export Plug-In . SVG Version: 6.00 Build 0)  -->
<svg version="1.1" xmlns="http://www.w3.org/2000/svg" xmlns:xlink="http://www.w3.org/1999/xlink" x="0px" y="0px"
	 viewBox="0 0 500 500" style="enable-background:new 0 0 500 500;" xml:space="preserve">
<g id="BACKGROUND">
	<rect style="fill:#FFFFFF;" width="500" height="500"/>
</g>
<g id="OBJECTS">
	<g>
		<g>
			<path d="M226.073,241.672h-4.332c-11.396,10.053-20.412,22.744-26.074,37.112c0.635,0.928,1.294,1.838,1.974,2.731
				C203.469,265.832,213.377,252.117,226.073,241.672z M211.647,241.672h-4.334c-7.453,6.576-13.887,14.28-19.031,22.845
				c0.414,1.117,0.858,2.218,1.33,3.305C195.314,257.813,202.802,248.948,211.647,241.672z M240.5,241.672h-4.332
				c-14.484,12.776-25.117,29.817-29.914,49.141c0.784,0.698,1.584,1.378,2.401,2.039C213.397,272.44,224.827,254.567,240.5,241.672
				z M265.019,241.672c-17.975,15.857-30.019,38.284-32.336,63.487c0.914,0.249,1.835,0.48,2.765,0.69
				c2.251-25.786,14.987-48.61,33.912-64.177H265.019z M254.929,241.672h-4.334c-16.661,14.696-28.229,35.037-31.677,58.002
				c0.873,0.469,1.756,0.92,2.652,1.349C224.898,277.223,237.196,256.261,254.929,241.672z"/>
			<g>
				<path d="M258.438,252.246c-0.632,0.719-1.256,1.445-1.866,2.182c15.58,8.35,28.281,21.398,36.195,37.24
					c0.74-0.633,1.464-1.283,2.175-1.948C286.839,273.852,274.058,260.758,258.438,252.246z"/>
				<path d="M251.465,261.207c-0.532,0.776-1.055,1.559-1.564,2.351c14.301,8.061,26.058,20.126,33.735,34.667
					c0.809-0.482,1.607-0.982,2.393-1.497C278.13,281.854,266.094,269.499,251.465,261.207z"/>
				<path d="M245.642,270.906c-0.435,0.834-0.858,1.675-1.269,2.524c11.98,7.352,22.021,17.571,29.142,29.705
					c0.888-0.34,1.766-0.698,2.635-1.075C268.743,289.305,258.221,278.578,245.642,270.906z"/>
				<path d="M240.952,281.45c-0.339,0.91-0.665,1.826-0.976,2.749c8.648,5.97,16.151,13.488,22.089,22.16
					c1-0.185,1.992-0.391,2.976-0.621C258.667,296.162,250.47,287.901,240.952,281.45z"/>
				<path d="M302.495,241.672h-4.109c5.76,5.216,10.802,11.207,14.969,17.805c0.345-1.231,0.653-2.477,0.927-3.736
					C310.846,250.648,306.89,245.935,302.495,241.672z"/>
				<path d="M237.446,293.169c-0.233,1.018-0.454,2.04-0.654,3.071c4.183,3.368,8.047,7.119,11.529,11.206
					c0.558,0.014,1.117,0.021,1.679,0.021c0.658,0,1.314-0.012,1.968-0.032C247.693,302.14,242.815,297.353,237.446,293.169z"/>
				<path d="M266.675,243.975c-0.744,0.66-1.48,1.33-2.203,2.014c15.702,8.318,28.511,21.393,36.49,37.298
					c0.655-0.802,1.292-1.618,1.91-2.451C294.75,265.242,282.099,252.373,266.675,243.975z"/>
				<path d="M284.392,241.672h-4.971c11.928,7.784,21.799,18.469,28.598,31.048c0.535-0.999,1.045-2.013,1.53-3.042
					C303.259,258.635,294.651,249.078,284.392,241.672z"/>
			</g>
			<g>
				<g>
					<path d="M250,308.874c-37.056,0-67.202-30.147-67.202-67.203c0-0.778,0.63-1.408,1.408-1.408h131.59
						c0.778,0,1.408,0.63,1.408,1.408C317.203,278.727,287.056,308.874,250,308.874z M185.628,243.079
						c0.751,34.856,29.339,62.98,64.372,62.98s63.621-28.123,64.372-62.98H185.628z"/>
				</g>
			</g>
		</g>
		<g>
			<g>
				<path d="M249.466,192.31l3.048-3.083l3.048,3.083c0.322,0.326,5.585,5.731,8.895,13.729c3.343-3.249,5.424-7.789,5.424-12.808
					v-0.906v-11.995V148.03c0-1.506-2.128-2.856-4.141-2.856v35.157h-6.211V145.96c0-0.953-0.967-1.725-2.161-1.725
					c-1.193,0-2.161,0.772-2.161,1.725v34.371h-6.402V145.96c0-0.953-0.967-1.725-2.161-1.725c-1.193,0-2.161,0.772-2.161,1.725
					v34.371h-6.211v-35.615c-1.265,0-4.141,0.69-4.141,3.106v32.509v12.093v0.808c0,5.379,2.395,10.203,6.168,13.481
					C243.585,198.347,249.136,192.645,249.466,192.31z"/>
			</g>
			<g>
				<g>
					<path style="fill:#B8E45C;" d="M228.085,231.608c-25.587,0.885-43.88,3.235-43.88,5.995h48.183
						C230.685,235.797,229.24,233.781,228.085,231.608z"/>
					<path style="fill:#B8E45C;" d="M272.647,237.603h44.397c0-2.625-16.544-4.878-40.169-5.854
						C275.732,233.868,274.313,235.837,272.647,237.603z"/>
				</g>
				<path style="fill:#B8E45C;" d="M266.016,237.603c5.339-3.806,9.006-9.804,9.68-16.683c-3.471-2.769-7.829-3.8-12.876-1.992
					c0.001-0.103,0.007-0.202,0.007-0.306c0-12.867-10.313-23.298-10.313-23.298s-10.312,10.431-10.312,23.298
					c0,0.072,0.005,0.14,0.005,0.212c-5.083-1.895-9.433-0.907-12.886,1.838c0.609,6.98,4.294,13.075,9.69,16.927L266.016,237.603z"
					/>
			</g>
		</g>
		<text transform="matrix(1 0 0 1 185.5695 331.6885)"><tspan x="0" y="0" style="fill:#B8E45C; font-family:'Montserrat-ExtraBold'; font-size:18.8943px;">GREEN</tspan><tspan x="69.153" y="0" style="font-family:'Montserrat-ExtraBold'; font-size:18.8943px;">FOOD</tspan></text>
		
			<text transform="matrix(1 0 0 1 198.5446 342.503)" style="font-family:'Montserrat-Medium'; font-size:6.5795px; letter-spacing:1;">YOUR TAGGLE HERE</text>
	</g>
</g>
</svg>
